{
  "asset": { "version": "2.0", "generator": "Quasar Phase 1 fixture" },
  "buffers": [
    {
      "uri": "data:application/octet-stream;base64,",
      "byteLength": 168
    }
  ],
  "bufferViews": [
    { "buffer": 0, "byteOffset": 0, "byteLength": 96, "target": 34962 },
    { "buffer": 0, "byteOffset": 96, "byteLength": 72, "target": 34963 }
  ],
  "accessors": [
    { "bufferView": 0, "componentType": 5126, "count": 8, "type": "VEC3", "min": [-0.5, -0.5, -0.5], "max": [0.5, 0.5, 0.5] },
    { "bufferView": 1, "componentType": 5123, "count": 36, "type": "SCALAR" }
  ],
  "materials": [
    { "pbrMetallicRoughness": { "baseColorFactor": [0.1, 0.75, 0.7, 1.0] } },
    { "pbrMetallicRoughness": { "baseColorFactor": [0.35, 0.38, 0.42, 1.0] } }
  ],
  "meshes": [
    { "name": "Cube", "primitives": [{ "attributes": { "POSITION": 0 }, "indices": 1, "material": 0 }] },
    { "name": "Floor", "primitives": [{ "attributes": { "POSITION": 0 }, "indices": 1, "material": 1 }] }
  ],
  "nodes": [
    { "name": "Cube", "mesh": 0 },
    { "name": "Floor", "mesh": 1, "translation": [0.0, -0.5, 0.0], "scale": [12.0, 1.0, 12.0] }
  ],
  "scenes": [{ "nodes": [0, 1] }],
  "scene": 0
}
